<mxfile host="65bd71144e">
    <diagram id="3Vtg08yl8JlHhC2cZIUW" name="ページ1">
        <mxGraphModel dx="871" dy="633" grid="1" gridSize="10" guides="1" tooltips="1" connect="1" arrows="1" fold="1" page="1" pageScale="1" pageWidth="827" pageHeight="1169" math="0" shadow="0">
            <root>
                <mxCell id="0"/>
                <mxCell id="1" parent="0"/>
                <mxCell id="2" value="CodePipeline" style="outlineConnect=0;dashed=0;verticalLabelPosition=bottom;verticalAlign=top;align=center;html=1;shape=mxgraph.aws4.codepipeline;fillColor=#3F8FE8;gradientColor=none;" vertex="1" parent="1">
                    <mxGeometry x="390" y="450" width="80" height="80" as="geometry"/>
                </mxCell>
                <mxCell id="3" value="CodeBuild" style="outlineConnect=0;dashed=0;verticalLabelPosition=bottom;verticalAlign=top;align=center;html=1;shape=mxgraph.aws4.codebuild;fillColor=#3F8FE8;gradientColor=none;" vertex="1" parent="1">
                    <mxGeometry x="570" y="610" width="80" height="80" as="geometry"/>
                </mxCell>
                <mxCell id="4" value="CodeDeploy" style="outlineConnect=0;dashed=0;verticalLabelPosition=bottom;verticalAlign=top;align=center;html=1;shape=mxgraph.aws4.codedeploy;fillColor=#3F8FE8;gradientColor=none;" vertex="1" parent="1">
                    <mxGeometry x="640" y="300" width="80" height="80" as="geometry"/>
                </mxCell>
                <mxCell id="5" value="S3 Source&#xa;Bucket" style="outlineConnect=0;dashed=0;verticalLabelPosition=bottom;verticalAlign=top;align=center;html=1;shape=mxgraph.aws4.s3;fillColor=#7AA116;gradientColor=none;" vertex="1" parent="1">
                    <mxGeometry x="80" y="450" width="80" height="80" as="geometry"/>
                </mxCell>
                <mxCell id="6" value="EventBridge" style="outlineConnect=0;dashed=0;verticalLabelPosition=bottom;verticalAlign=top;align=center;html=1;shape=mxgraph.aws4.eventbridge;fillColor=#F58534;gradientColor=none;" vertex="1" parent="1">
                    <mxGeometry x="230" y="450" width="80" height="80" as="geometry"/>
                </mxCell>
                <mxCell id="7" value="S3 Artifacts&#xa;Bucket" style="outlineConnect=0;dashed=0;verticalLabelPosition=bottom;verticalAlign=top;align=center;html=1;shape=mxgraph.aws4.s3;fillColor=#7AA116;gradientColor=none;" vertex="1" parent="1">
                    <mxGeometry x="610" y="470" width="80" height="80" as="geometry"/>
                </mxCell>
            </root>
        </mxGraphModel>
    </diagram>
</mxfile>